<svg xmlns="http://www.w3.org/2000/svg" xmlns:xlink="http://www.w3.org/1999/xlink">
    <symbol fill="currentColor" viewBox="0 0 183 24" id="Logo">
        <path fill-rule="evenodd" clip-rule="evenodd"
            d="M4.5 9.338a.75.75 0 0 1 .75.75V19.5h13.5v-9.412a.75.75 0 0 1 1.5 0V19.5a1.5 1.5 0 0 1-1.5 1.5H5.25a1.5 1.5 0 0 1-1.5-1.5v-9.412a.75.75 0 0 1 .75-.75ZM2.25 3.75A.75.75 0 0 1 3 3h18a.75.75 0 0 1 0 1.5H3a.75.75 0 0 1-.75-.75Z" />
        <path fill-rule="evenodd" clip-rule="evenodd"
            d="M3 5.25a.75.75 0 0 1 .75.75v1.5a2.25 2.25 0 1 0 4.5 0V6a.75.75 0 0 1 1.5 0v1.5a3.75 3.75 0 1 1-7.5 0V6A.75.75 0 0 1 3 5.25Z" />
        <path fill-rule="evenodd" clip-rule="evenodd"
            d="M9 5.25a.75.75 0 0 1 .75.75v1.5a2.25 2.25 0 1 0 4.5 0V6a.75.75 0 0 1 1.5 0v1.5a3.75 3.75 0 1 1-7.5 0V6A.75.75 0 0 1 9 5.25Z" />
        <path fill-rule="evenodd" clip-rule="evenodd"
            d="M15 5.25a.75.75 0 0 1 .75.75v1.5a2.25 2.25 0 0 0 4.5 0V6a.75.75 0 0 1 1.5 0v1.5a3.75 3.75 0 1 1-7.5 0V6a.75.75 0 0 1 .75-.75Z" />
        <path
            d="M38.61 16.91h.297V6.45h2.178V18h-4.257L35.475 7.537h-.297V18H33V6.45h4.257L38.61 16.91ZM43.548 6.45h7.392v2.078h-5.213v2.64h5.115v2.08h-5.115v4.751h-2.178V6.45ZM53.09 6.45h8.317v2.078h-3.07V18H56.16V8.53h-3.07v-2.08ZM72.769 6.45h3.828l.66 8.678v1.683h.396v-1.683l.66-8.679h3.828V18h-1.98v-7.722l.198-2.64h-.396L79.105 18h-3.267l-.891-10.362h-.396l.198 2.64V18h-1.98V6.45ZM89.092 16.811c-.22.517-.528.886-.924 1.106-.396.209-.858.313-1.386.313-.495 0-.962-.093-1.402-.28a3.322 3.322 0 0 1-1.139-.825 4.137 4.137 0 0 1-.792-1.32c-.187-.517-.28-1.106-.28-1.766v-.264c0-.649.093-1.232.28-1.749.187-.517.44-.957.76-1.32a3.204 3.204 0 0 1 1.105-.825 3.229 3.229 0 0 1 1.37-.297c.582 0 1.05.1 1.402.297.363.198.649.506.858.924h.297v-.99h2.079v5.71c0 .33.148.494.445.494h.314V18h-1.42c-.373 0-.681-.11-.923-.33-.231-.22-.347-.506-.347-.858h-.297Zm-1.848-.56c.605 0 1.09-.199 1.452-.595.363-.407.545-.957.545-1.65v-.198c0-.693-.182-1.237-.545-1.633-.363-.407-.847-.61-1.452-.61s-1.089.203-1.452.61c-.363.396-.544.94-.544 1.633v.198c0 .693.181 1.243.544 1.65.363.396.847.594 1.452.594ZM93.503 9.815h3.465v1.188h.297c.154-.45.412-.797.775-1.04.374-.252.82-.379 1.337-.379.814 0 1.468.259 1.963.776.495.506.743 1.281.743 2.326v.363l-2.145.198v-.23c0-.452-.116-.81-.347-1.073-.23-.275-.577-.413-1.04-.413-.461 0-.824.16-1.088.479-.264.319-.396.775-.396 1.37v2.64h1.88V18h-5.642v-1.98h1.683v-4.225h-1.485v-1.98ZM106.741 12.818h.396l2.178-3.003h2.277v.1l-2.64 3.745v.297l2.904 3.943v.1h-2.376l-2.343-3.202h-.396V18h-2.079V6.45h2.079v6.37ZM115.936 14.584c.011.242.066.467.165.676.11.198.253.374.429.528.187.143.396.259.627.347.242.077.495.115.759.115.517 0 .913-.088 1.188-.264.275-.187.473-.407.594-.66l1.782.99a3.758 3.758 0 0 1-.412.66c-.176.22-.407.424-.693.61a3.676 3.676 0 0 1-1.023.463c-.396.12-.864.181-1.403.181a4.583 4.583 0 0 1-1.683-.297 3.805 3.805 0 0 1-1.32-.858 4.03 4.03 0 0 1-.858-1.37c-.198-.538-.297-1.149-.297-1.83v-.1c0-.627.105-1.199.314-1.716.22-.517.517-.957.891-1.32a3.964 3.964 0 0 1 1.303-.841 4.193 4.193 0 0 1 1.617-.314c.704 0 1.309.127 1.815.38.506.242.924.555 1.254.94a3.6 3.6 0 0 1 .726 1.254c.154.451.231.891.231 1.32v1.106h-6.006Zm1.964-3.119c-.528 0-.957.138-1.287.413-.33.264-.545.572-.644.924h3.861c-.066-.385-.275-.704-.627-.957-.341-.253-.775-.38-1.303-.38ZM123.977 9.815h2.425V6.45h2.079v3.366h2.954v1.98h-2.954v3.73c0 .33.149.494.446.494h2.211V18h-3.465c-.374 0-.682-.12-.924-.363-.231-.242-.347-.55-.347-.924v-4.917h-2.425v-1.98ZM135.961 21.3h-2.079V9.814h2.079v1.188h.297a2.37 2.37 0 0 1 .957-1.04c.418-.252.951-.379 1.6-.379.484 0 .941.094 1.37.28.44.188.819.463 1.138.826.33.352.589.786.776 1.303.198.517.297 1.106.297 1.766v.297c0 .67-.094 1.265-.281 1.782-.187.517-.44.957-.759 1.32a3.213 3.213 0 0 1-1.138.808 3.662 3.662 0 0 1-1.403.264 3.63 3.63 0 0 1-.973-.115 2.73 2.73 0 0 1-.726-.314 2.527 2.527 0 0 1-.512-.445 4.116 4.116 0 0 1-.346-.545h-.297V21.3Zm2.178-5.05c.649 0 1.171-.198 1.567-.594.407-.407.611-.957.611-1.65v-.198c0-.693-.204-1.237-.611-1.633-.396-.407-.918-.61-1.567-.61-.649 0-1.177.208-1.584.626-.396.407-.594.946-.594 1.617v.198c0 .671.198 1.216.594 1.634.407.407.935.61 1.584.61ZM144.364 16.02h2.871V8.43h-2.772V6.45h4.851v9.57h2.673V18h-7.623v-1.98ZM159.813 16.811c-.22.517-.528.886-.924 1.106-.396.209-.858.313-1.386.313-.495 0-.962-.093-1.402-.28a3.324 3.324 0 0 1-1.139-.825 4.137 4.137 0 0 1-.792-1.32c-.187-.517-.28-1.106-.28-1.766v-.264c0-.649.093-1.232.28-1.749.187-.517.44-.957.759-1.32a3.205 3.205 0 0 1 1.106-.825 3.227 3.227 0 0 1 1.369-.297c.583 0 1.051.1 1.403.297.363.198.649.506.858.924h.297v-.99h2.079v5.71c0 .33.148.494.445.494h.314V18h-1.419c-.374 0-.682-.11-.924-.33-.231-.22-.347-.506-.347-.858h-.297Zm-1.848-.56c.605 0 1.089-.199 1.452-.595.363-.407.545-.957.545-1.65v-.198c0-.693-.182-1.237-.545-1.633-.363-.407-.847-.61-1.452-.61s-1.089.203-1.452.61c-.363.396-.544.94-.544 1.633v.198c0 .693.181 1.243.544 1.65.363.396.847.594 1.452.594ZM172.606 14.996c-.187.968-.633 1.75-1.337 2.343-.693.594-1.622.891-2.788.891a5.057 5.057 0 0 1-1.7-.28 3.994 3.994 0 0 1-1.353-.809 3.702 3.702 0 0 1-.907-1.303c-.22-.517-.33-1.106-.33-1.766v-.198c0-.66.11-1.254.33-1.782a4.01 4.01 0 0 1 .907-1.353c.396-.374.853-.66 1.37-.858a4.753 4.753 0 0 1 1.683-.297c1.144 0 2.068.297 2.772.891.715.594 1.166 1.375 1.353 2.343l-2.046.528a2.14 2.14 0 0 0-.627-1.254c-.352-.352-.847-.528-1.485-.528-.297 0-.578.055-.842.165a2.01 2.01 0 0 0-.693.479 2.216 2.216 0 0 0-.478.742c-.11.286-.165.61-.165.974v.099c0 .363.055.687.165.973.121.275.28.506.478.693.198.187.429.33.693.43.264.087.545.131.842.131.638 0 1.122-.16 1.452-.478.341-.32.561-.748.66-1.287l2.046.511ZM176.554 14.584c.011.242.066.467.165.676.11.198.253.374.429.528.187.143.396.259.627.347.242.077.495.115.759.115.517 0 .913-.088 1.188-.264.275-.187.473-.407.594-.66l1.782.99a3.758 3.758 0 0 1-.412.66c-.176.22-.407.424-.693.61a3.676 3.676 0 0 1-1.023.463c-.396.12-.864.181-1.403.181a4.583 4.583 0 0 1-1.683-.297 3.805 3.805 0 0 1-1.32-.858 4.03 4.03 0 0 1-.858-1.37c-.198-.538-.297-1.149-.297-1.83v-.1c0-.627.105-1.199.314-1.716.22-.517.517-.957.891-1.32a3.964 3.964 0 0 1 1.303-.841 4.193 4.193 0 0 1 1.617-.314c.704 0 1.309.127 1.815.38.506.242.924.555 1.254.94a3.6 3.6 0 0 1 .726 1.254c.154.451.231.891.231 1.32v1.106h-6.006Zm1.964-3.119c-.528 0-.957.138-1.287.413-.33.264-.545.572-.644.924h3.861c-.066-.385-.275-.704-.627-.957-.341-.253-.775-.38-1.303-.38Z" />
    </symbol>
    <symbol fill="currentColor" viewBox="0 0 80 80" id="MusicNotes">
        <path
            d="M56.25 62.5a8.75 8.75 0 1 0 0-17.5 8.75 8.75 0 0 0 0 17.5ZM16.25 72.5a8.75 8.75 0 1 0 0-17.5 8.75 8.75 0 0 0 0 17.5ZM65 25 25 35"
            stroke="#fff" stroke-width="3" stroke-linecap="round" stroke-linejoin="round" />
        <path d="M25 63.75V20l40-10v43.75" stroke="#fff" stroke-width="3" stroke-linecap="round"
            stroke-linejoin="round" />
    </symbol>
    <symbol fill="currentColor" viewBox="0 0 21 20" id="RocketLaunch">
        <path fill-rule="evenodd" clip-rule="evenodd"
            d="M6.67 12.45a.625.625 0 0 1-.393.791c-1.06.356-1.622 1.246-1.923 2.15-.12.36-.192.705-.236.99.286-.043.632-.115.991-.235.905-.3 1.794-.864 2.15-1.923a.625.625 0 0 1 1.185.398c-.534 1.59-1.856 2.35-2.94 2.711a7.373 7.373 0 0 1-2.019.363H3.431l-.001-.625h-.625v-.017a3.195 3.195 0 0 1 .006-.169 7.373 7.373 0 0 1 .357-1.888c.36-1.084 1.122-2.405 2.71-2.94a.625.625 0 0 1 .793.393Zm-3.24 4.62h-.625c0 .346.28.625.625.625v-.625ZM17.046 3.454c-.725-.105-2.51-.144-4.338 1.684L7.845 10l2.655 2.655 4.863-4.862c1.827-1.828 1.788-3.613 1.683-4.339Zm.181-1.237c-.997-.144-3.221-.145-5.403 2.037L6.519 9.558a.625.625 0 0 0 0 .884l3.54 3.54c.243.243.639.243.883 0l5.305-5.305c2.182-2.182 2.18-4.406 2.036-5.404a1.234 1.234 0 0 0-1.056-1.056Z" />
        <path fill-rule="evenodd" clip-rule="evenodd"
            d="M14.922 8.492c.345 0 .625.28.625.625v5.056a1.25 1.25 0 0 1-.372.872l-2.522 2.53a1.25 1.25 0 0 1-2.11-.64l-.656-3.273a.625.625 0 1 1 1.226-.246l.656 3.275 2.528-2.536V9.117c0-.345.28-.625.625-.625ZM6.326 4.953h5.056a.625.625 0 1 1 0 1.25H6.344l-.005.005-2.53 2.523 3.274.656a.625.625 0 0 1-.246 1.226l-3.272-.656a1.25 1.25 0 0 1-.64-2.11l2.53-2.522a1.25 1.25 0 0 1 .871-.372Z" />
    </symbol>
</svg>